G04 #@! TF.GenerationSoftware,KiCad,Pcbnew,9.0.9.1-1.fc43*
G04 #@! TF.CreationDate,2026-06-15T16:41:56-03:00*
G04 #@! TF.ProjectId,prototype,70726f74-6f74-4797-9065-2e6b69636164,v0.0*
G04 #@! TF.SameCoordinates,Original*
G04 #@! TF.FileFunction,Copper,L1,Top*
G04 #@! TF.FilePolarity,Positive*
%FSLAX45Y45*%
G04 Gerber Fmt 4.5, Leading zero omitted, Abs format (unit mm)*
G04 Created by KiCad (PCBNEW 9.0.9.1-1.fc43) date 2026-06-15 16:41:56*
%MOMM*%
%LPD*%
G01*
G04 APERTURE LIST*
G04 Aperture macros list*
%AMRoundRect*
0 Rectangle with rounded corners*
0 $1 Rounding radius*
0 $2 $3 $4 $5 $6 $7 $8 $9 X,Y pos of 4 corners*
0 Add a 4 corners polygon primitive as box body*
4,1,4,$2,$3,$4,$5,$6,$7,$8,$9,$2,$3,0*
0 Add four circle primitives for the rounded corners*
1,1,$1+$1,$2,$3*
1,1,$1+$1,$4,$5*
1,1,$1+$1,$6,$7*
1,1,$1+$1,$8,$9*
0 Add four rect primitives between the rounded corners*
20,1,$1+$1,$2,$3,$4,$5,0*
20,1,$1+$1,$4,$5,$6,$7,0*
20,1,$1+$1,$6,$7,$8,$9,0*
20,1,$1+$1,$8,$9,$2,$3,0*%
G04 Aperture macros list end*
G04 #@! TA.AperFunction,EtchedComponent*
%ADD10C,0.000000*%
G04 #@! TD*
G04 #@! TA.AperFunction,SMDPad,CuDef*
%ADD11RoundRect,0.250000X-1.075000X0.362500X-1.075000X-0.362500X1.075000X-0.362500X1.075000X0.362500X0*%
G04 #@! TD*
G04 #@! TA.AperFunction,SMDPad,CuDef*
%ADD12C,0.500000*%
G04 #@! TD*
G04 #@! TA.AperFunction,ComponentPad*
%ADD13C,5.500000*%
G04 #@! TD*
G04 #@! TA.AperFunction,ComponentPad*
%ADD14R,1.950000X1.950000*%
G04 #@! TD*
G04 #@! TA.AperFunction,ComponentPad*
%ADD15C,1.950000*%
G04 #@! TD*
G04 #@! TA.AperFunction,ComponentPad*
%ADD16R,1.800000X1.800000*%
G04 #@! TD*
G04 #@! TA.AperFunction,ComponentPad*
%ADD17C,1.800000*%
G04 #@! TD*
G04 #@! TA.AperFunction,ComponentPad*
%ADD18C,1.600000*%
G04 #@! TD*
G04 #@! TA.AperFunction,ComponentPad*
%ADD19C,1.570000*%
G04 #@! TD*
G04 #@! TA.AperFunction,ComponentPad*
%ADD20R,1.650000X1.650000*%
G04 #@! TD*
G04 #@! TA.AperFunction,ComponentPad*
%ADD21C,1.650000*%
G04 #@! TD*
G04 #@! TA.AperFunction,ComponentPad*
%ADD22R,1.390000X1.390000*%
G04 #@! TD*
G04 #@! TA.AperFunction,ComponentPad*
%ADD23C,1.390000*%
G04 #@! TD*
G04 #@! TA.AperFunction,ComponentPad*
%ADD24C,1.550000*%
G04 #@! TD*
G04 #@! TA.AperFunction,ComponentPad*
%ADD25RoundRect,0.250000X-0.650000X0.650000X-0.650000X-0.650000X0.650000X-0.650000X0.650000X0.650000X0*%
G04 #@! TD*
G04 #@! TA.AperFunction,ComponentPad*
%ADD26C,3.000000*%
G04 #@! TD*
G04 #@! TA.AperFunction,ComponentPad*
%ADD27C,2.500000*%
G04 #@! TD*
G04 #@! TA.AperFunction,ViaPad*
%ADD28C,1.650000*%
G04 #@! TD*
G04 #@! TA.AperFunction,Conductor*
%ADD29C,1.500000*%
G04 #@! TD*
G04 #@! TA.AperFunction,Conductor*
%ADD30C,0.500000*%
G04 #@! TD*
G04 #@! TA.AperFunction,Conductor*
%ADD31C,0.750000*%
G04 #@! TD*
G04 #@! TA.AperFunction,Conductor*
%ADD32C,2.500000*%
G04 #@! TD*
G04 APERTURE END LIST*
D10*
G04 #@! TA.AperFunction,EtchedComponent*
G36*
X19471820Y-17876640D02*
G01*
X19421820Y-17876640D01*
X19421820Y-17776640D01*
X19471820Y-17776640D01*
X19471820Y-17876640D01*
G37*
G04 #@! TD.AperFunction*
G04 #@! TA.AperFunction,EtchedComponent*
G36*
X21328700Y-16070700D02*
G01*
X21278700Y-16070700D01*
X21278700Y-15970700D01*
X21328700Y-15970700D01*
X21328700Y-16070700D01*
G37*
G04 #@! TD.AperFunction*
G04 #@! TA.AperFunction,EtchedComponent*
G36*
X20090780Y-17274660D02*
G01*
X20040780Y-17274660D01*
X20040780Y-17174660D01*
X20090780Y-17174660D01*
X20090780Y-17274660D01*
G37*
G04 #@! TD.AperFunction*
G04 #@! TA.AperFunction,EtchedComponent*
G36*
X18233900Y-19080600D02*
G01*
X18183900Y-19080600D01*
X18183900Y-18980600D01*
X18233900Y-18980600D01*
X18233900Y-19080600D01*
G37*
G04 #@! TD.AperFunction*
G04 #@! TA.AperFunction,EtchedComponent*
G36*
X20709740Y-16310180D02*
G01*
X20659740Y-16310180D01*
X20659740Y-16210180D01*
X20709740Y-16210180D01*
X20709740Y-16310180D01*
G37*
G04 #@! TD.AperFunction*
G04 #@! TA.AperFunction,EtchedComponent*
G36*
X13693400Y-20465400D02*
G01*
X13643400Y-20465400D01*
X13643400Y-20365400D01*
X13693400Y-20365400D01*
X13693400Y-20465400D01*
G37*
G04 #@! TD.AperFunction*
G04 #@! TA.AperFunction,EtchedComponent*
G36*
X19471820Y-17514140D02*
G01*
X19421820Y-17514140D01*
X19421820Y-17414140D01*
X19471820Y-17414140D01*
X19471820Y-17514140D01*
G37*
G04 #@! TD.AperFunction*
G04 #@! TA.AperFunction,EtchedComponent*
G36*
X13693400Y-20102900D02*
G01*
X13643400Y-20102900D01*
X13643400Y-20002900D01*
X13693400Y-20002900D01*
X13693400Y-20102900D01*
G37*
G04 #@! TD.AperFunction*
G04 #@! TA.AperFunction,EtchedComponent*
G36*
X18852860Y-18478620D02*
G01*
X18802860Y-18478620D01*
X18802860Y-18378620D01*
X18852860Y-18378620D01*
X18852860Y-18478620D01*
G37*
G04 #@! TD.AperFunction*
G04 #@! TA.AperFunction,EtchedComponent*
G36*
X21328700Y-15708200D02*
G01*
X21278700Y-15708200D01*
X21278700Y-15608200D01*
X21328700Y-15608200D01*
X21328700Y-15708200D01*
G37*
G04 #@! TD.AperFunction*
G04 #@! TA.AperFunction,EtchedComponent*
G36*
X20090780Y-16912160D02*
G01*
X20040780Y-16912160D01*
X20040780Y-16812160D01*
X20090780Y-16812160D01*
X20090780Y-16912160D01*
G37*
G04 #@! TD.AperFunction*
G04 #@! TA.AperFunction,EtchedComponent*
G36*
X14493400Y-19896650D02*
G01*
X14443400Y-19896650D01*
X14443400Y-19796650D01*
X14493400Y-19796650D01*
X14493400Y-19896650D01*
G37*
G04 #@! TD.AperFunction*
G04 #@! TA.AperFunction,EtchedComponent*
G36*
X14493400Y-19534150D02*
G01*
X14443400Y-19534150D01*
X14443400Y-19434150D01*
X14493400Y-19434150D01*
X14493400Y-19534150D01*
G37*
G04 #@! TD.AperFunction*
G04 #@! TA.AperFunction,EtchedComponent*
G36*
X20709740Y-16672680D02*
G01*
X20659740Y-16672680D01*
X20659740Y-16572680D01*
X20709740Y-16572680D01*
X20709740Y-16672680D01*
G37*
G04 #@! TD.AperFunction*
G04 #@! TA.AperFunction,EtchedComponent*
G36*
X18233900Y-18718100D02*
G01*
X18183900Y-18718100D01*
X18183900Y-18618100D01*
X18233900Y-18618100D01*
X18233900Y-18718100D01*
G37*
G04 #@! TD.AperFunction*
G04 #@! TA.AperFunction,EtchedComponent*
G36*
X18852860Y-18116120D02*
G01*
X18802860Y-18116120D01*
X18802860Y-18016120D01*
X18852860Y-18016120D01*
X18852860Y-18116120D01*
G37*
G04 #@! TD.AperFunction*
D11*
X13668400Y-20002900D03*
X13668400Y-20465400D03*
D12*
X19446820Y-17776640D03*
X19446820Y-17876640D03*
X21303700Y-15970700D03*
X21303700Y-16070700D03*
D13*
X32114810Y-22109850D03*
D12*
X20065780Y-17174660D03*
X20065780Y-17274660D03*
D11*
X18827860Y-18016120D03*
X18827860Y-18478620D03*
D14*
X32098000Y-7433400D03*
D15*
X31844000Y-7433400D03*
X32098000Y-7687400D03*
X31844000Y-7687400D03*
X32098000Y-7941400D03*
X31844000Y-7941400D03*
X32098000Y-8195400D03*
X31844000Y-8195400D03*
X32098000Y-8449400D03*
X31844000Y-8449400D03*
X32098000Y-8703400D03*
X31844000Y-8703400D03*
X32098000Y-8957400D03*
X31844000Y-8957400D03*
X32098000Y-9211400D03*
X31844000Y-9211400D03*
X32098000Y-9465400D03*
X31844000Y-9465400D03*
D11*
X20684740Y-16210180D03*
X20684740Y-16672680D03*
D12*
X18208900Y-18980600D03*
X18208900Y-19080600D03*
X20684740Y-16310180D03*
X20684740Y-16210180D03*
X13668400Y-20365400D03*
X13668400Y-20465400D03*
D11*
X19446820Y-17414140D03*
X19446820Y-17876640D03*
X14468400Y-19434150D03*
X14468400Y-19896650D03*
D13*
X27581500Y-18483700D03*
D11*
X21303700Y-15608200D03*
X21303700Y-16070700D03*
D12*
X19446820Y-17514140D03*
X19446820Y-17414140D03*
D13*
X21915892Y-18483700D03*
D12*
X13668400Y-20102900D03*
X13668400Y-20002900D03*
D13*
X21915892Y-11222664D03*
D12*
X18827860Y-18378620D03*
X18827860Y-18478620D03*
D13*
X27581500Y-11222664D03*
X9316000Y-22109850D03*
D12*
X21303700Y-15708200D03*
X21303700Y-15608200D03*
D11*
X20065780Y-16812160D03*
X20065780Y-17274660D03*
D12*
X20065780Y-16912160D03*
X20065780Y-16812160D03*
X14468400Y-19796650D03*
X14468400Y-19896650D03*
X14468400Y-19534150D03*
X14468400Y-19434150D03*
X20684740Y-16572680D03*
X20684740Y-16672680D03*
D11*
X18208900Y-18618100D03*
X18208900Y-19080600D03*
D13*
X9316000Y-6387040D03*
D12*
X18208900Y-18718100D03*
X18208900Y-18618100D03*
X18827860Y-18116120D03*
X18827860Y-18016120D03*
D13*
X32114810Y-6387040D03*
D16*
X31033360Y-7719180D03*
D17*
X31287360Y-7719180D03*
D18*
X30220560Y-6685400D03*
X30220560Y-7447400D03*
D19*
X29459692Y-17721700D03*
X29459692Y-17467700D03*
X29713692Y-17721700D03*
X29713692Y-17467700D03*
X29967692Y-17721700D03*
X29967692Y-17467700D03*
X30221692Y-17721700D03*
X30221692Y-17467700D03*
X30475692Y-17721700D03*
X30475692Y-17467700D03*
X30729692Y-17721700D03*
X30729692Y-17467700D03*
X30983692Y-17721700D03*
X30983692Y-17467700D03*
X31237692Y-17721700D03*
X31237692Y-17467700D03*
X10931800Y-15524600D03*
X10931800Y-15270600D03*
X11185800Y-15524600D03*
X11185800Y-15270600D03*
X11439800Y-15524600D03*
X11439800Y-15270600D03*
X11693800Y-15524600D03*
X11693800Y-15270600D03*
X11947800Y-15524600D03*
X11947800Y-15270600D03*
X12201800Y-15524600D03*
X12201800Y-15270600D03*
X12455800Y-15524600D03*
X12455800Y-15270600D03*
X12709800Y-15524600D03*
X12709800Y-15270600D03*
D20*
X9798000Y-8595400D03*
D21*
X9798000Y-8341400D03*
X9798000Y-8087400D03*
X9798000Y-7833400D03*
X9798000Y-7579400D03*
X9798000Y-7325400D03*
X9544000Y-8595400D03*
X9544000Y-8341400D03*
X9544000Y-8087400D03*
X9544000Y-7833400D03*
X9544000Y-7579400D03*
X9544000Y-7325400D03*
D22*
X14557500Y-21277700D03*
D23*
X14557500Y-21023700D03*
X14557500Y-20769700D03*
D24*
X22780900Y-9265400D03*
X23034900Y-9265400D03*
X23288900Y-9265400D03*
X23542900Y-9265400D03*
X23796900Y-9265400D03*
X23833592Y-20553800D03*
X24087592Y-20553800D03*
X24341592Y-20553800D03*
X24595592Y-20553800D03*
X24849592Y-20553800D03*
X25103592Y-20553800D03*
X25357592Y-20553800D03*
X25611592Y-20553800D03*
D18*
X31343240Y-7447400D03*
X31343240Y-6685400D03*
D25*
X30957160Y-6685400D03*
D17*
X30957160Y-7447400D03*
D14*
X18045069Y-11651513D03*
D15*
X17791069Y-11651513D03*
X17537069Y-11651513D03*
X17283069Y-11651513D03*
X17029069Y-11651513D03*
X16775069Y-11651513D03*
X16521069Y-11651513D03*
X16267069Y-11651513D03*
X16013069Y-11651513D03*
X15759069Y-11651513D03*
D14*
X12886205Y-11651513D03*
D15*
X12632205Y-11651513D03*
X12378205Y-11651513D03*
X12124205Y-11651513D03*
X11870205Y-11651513D03*
X11616205Y-11651513D03*
X11362205Y-11651513D03*
X11108205Y-11651513D03*
X10854205Y-11651513D03*
X10600205Y-11651513D03*
D26*
X24458200Y-7472800D03*
D27*
X24653200Y-6867800D03*
D26*
X25873200Y-6867800D03*
X25878200Y-8072800D03*
D27*
X24653200Y-8067800D03*
D21*
X17536492Y-20972900D03*
X17812492Y-20972900D03*
X18088492Y-20972900D03*
X18364492Y-20972900D03*
X18640492Y-20972900D03*
X18916492Y-20972900D03*
X19192492Y-20972900D03*
X19468492Y-20972900D03*
X19744492Y-20972900D03*
X20020492Y-20972900D03*
X20296492Y-20972900D03*
X20572492Y-20972900D03*
X20848492Y-20972900D03*
X21124492Y-20972900D03*
X21400492Y-20972900D03*
X21676492Y-20972900D03*
X21952492Y-20972900D03*
X17674492Y-21226900D03*
X17950492Y-21226900D03*
X18226492Y-21226900D03*
X18502492Y-21226900D03*
X18778492Y-21226900D03*
X19054492Y-21226900D03*
X19330492Y-21226900D03*
X19606492Y-21226900D03*
X19882492Y-21226900D03*
X20158492Y-21226900D03*
X20434492Y-21226900D03*
X20710492Y-21226900D03*
X20986492Y-21226900D03*
X21262492Y-21226900D03*
X21538492Y-21226900D03*
X21814492Y-21226900D03*
X17536492Y-21480900D03*
X17812492Y-21480900D03*
X18088492Y-21480900D03*
X18364492Y-21480900D03*
X18640492Y-21480900D03*
X18916492Y-21480900D03*
X19192492Y-21480900D03*
X19468492Y-21480900D03*
X19744492Y-21480900D03*
X20020492Y-21480900D03*
X20296492Y-21480900D03*
X20572492Y-21480900D03*
X20848492Y-21480900D03*
X21124492Y-21480900D03*
X21400492Y-21480900D03*
X21676492Y-21480900D03*
X21952492Y-21480900D03*
D22*
X13357500Y-21277700D03*
D23*
X13357500Y-21023700D03*
X13357500Y-20769700D03*
D19*
X15817300Y-6828800D03*
X16071300Y-6828800D03*
X16325300Y-6828800D03*
X16579300Y-6828800D03*
X16090664Y-15524600D03*
X16090664Y-15270600D03*
X16344664Y-15524600D03*
X16344664Y-15270600D03*
X16598664Y-15524600D03*
X16598664Y-15270600D03*
X16852664Y-15524600D03*
X16852664Y-15270600D03*
X17106664Y-15524600D03*
X17106664Y-15270600D03*
X17360664Y-15524600D03*
X17360664Y-15270600D03*
X17614664Y-15524600D03*
X17614664Y-15270600D03*
X17868664Y-15524600D03*
X17868664Y-15270600D03*
D14*
X27525400Y-6596500D03*
D15*
X27025400Y-6596500D03*
D20*
X9798000Y-10865400D03*
D21*
X9798000Y-10611400D03*
X9798000Y-10357400D03*
X9798000Y-10103400D03*
X9798000Y-9849400D03*
X9798000Y-9595400D03*
X9544000Y-10865400D03*
X9544000Y-10611400D03*
X9544000Y-10357400D03*
X9544000Y-10103400D03*
X9544000Y-9849400D03*
X9544000Y-9595400D03*
D24*
X26044800Y-9265400D03*
X26298800Y-9265400D03*
X26552800Y-9265400D03*
X26806800Y-9265400D03*
X27060800Y-9265400D03*
D18*
X30220560Y-8455780D03*
X30220560Y-7693780D03*
D19*
X31237692Y-11963940D03*
X30983692Y-11963940D03*
X30729692Y-11963940D03*
X30475692Y-11963940D03*
X30221692Y-11963940D03*
X29967692Y-11963940D03*
X29713692Y-11963940D03*
X29459692Y-11963940D03*
D28*
X16071300Y-7155300D03*
X21930000Y-20566500D03*
X26806800Y-8906600D03*
X26710280Y-6596500D03*
X12886205Y-11275813D03*
X26044800Y-8906600D03*
X31468300Y-7941400D03*
X31468300Y-8449400D03*
X16852664Y-14894900D03*
X31468300Y-8957400D03*
X30983692Y-11588240D03*
X13008100Y-20769700D03*
X23796900Y-9641100D03*
X10074000Y-7579400D03*
X25519400Y-8072800D03*
X11693800Y-14894900D03*
X20074392Y-20566500D03*
X18226492Y-20566500D03*
X21104500Y-20566500D03*
X19054492Y-20566500D03*
X18045069Y-11275813D03*
X30221692Y-17092000D03*
X9306200Y-9849400D03*
X14227300Y-20769700D03*
X27475840Y-9765400D03*
X26298800Y-9765400D03*
X15095200Y-21815400D03*
X23621992Y-20765400D03*
X23875992Y-20765400D03*
X14095200Y-22015400D03*
X22780900Y-10448300D03*
X10854205Y-12615400D03*
X16013069Y-12615400D03*
X11108205Y-12415400D03*
X16267069Y-12415400D03*
X23034900Y-10352300D03*
X16521069Y-12215400D03*
X23288900Y-10256300D03*
X11362205Y-12215400D03*
X10342520Y-8341400D03*
X29967692Y-11588240D03*
X29459692Y-11588240D03*
X10342520Y-8595400D03*
X12124205Y-11275813D03*
X9565280Y-9193650D03*
X11616205Y-11275813D03*
X10127960Y-8968860D03*
X16775069Y-11275813D03*
X15759069Y-11275813D03*
X10337017Y-9451883D03*
X17283069Y-11275813D03*
X13668400Y-19812620D03*
X13668400Y-7079100D03*
X18827860Y-7079100D03*
X20065780Y-16621880D03*
X18208900Y-7079100D03*
X19446820Y-17223860D03*
X21303700Y-15417920D03*
X20065780Y-7079100D03*
X20684740Y-7079100D03*
X18208900Y-18427820D03*
X20684740Y-16019900D03*
X19446820Y-7079100D03*
X18827860Y-17825840D03*
X21303700Y-7079100D03*
X14468400Y-7079100D03*
X14468400Y-19243870D03*
X24915300Y-7129900D03*
X9903100Y-11079600D03*
D29*
X26806800Y-8906600D02*
X26806800Y-9265400D01*
X23796900Y-9641100D02*
X23796900Y-9265400D01*
D30*
X9798000Y-9849400D02*
X9306200Y-9849400D01*
D31*
X19192492Y-21364900D02*
X19054492Y-21226900D01*
D29*
X25519400Y-8072800D02*
X25878200Y-8072800D01*
X16090664Y-15270600D02*
X17868664Y-15270600D01*
D31*
X30468180Y-8703400D02*
X31844000Y-8703400D01*
D29*
X14557500Y-20769700D02*
X14227300Y-20769700D01*
D31*
X20087092Y-20566500D02*
X20074392Y-20566500D01*
D29*
X12886205Y-11275813D02*
X12886205Y-11651513D01*
X31468300Y-8957400D02*
X31844000Y-8957400D01*
X16852664Y-14894900D02*
X16852664Y-15270600D01*
X31468300Y-7941400D02*
X31844000Y-7941400D01*
D31*
X20772892Y-21480900D02*
X20518892Y-21226900D01*
D29*
X30221692Y-17092000D02*
X30221692Y-17467700D01*
X29459692Y-17467700D02*
X31237692Y-17467700D01*
D31*
X21676492Y-20820008D02*
X21930000Y-20566500D01*
X30220560Y-8455780D02*
X30468180Y-8703400D01*
D32*
X27025400Y-6596500D02*
X26710280Y-6596500D01*
D31*
X20296492Y-21480900D02*
X20296492Y-21364900D01*
D29*
X31844000Y-8449400D02*
X31844000Y-9465400D01*
X16071300Y-7155300D02*
X16071300Y-6828800D01*
D30*
X10074000Y-7579400D02*
X9544000Y-7579400D01*
D29*
X10931800Y-15270600D02*
X12709800Y-15270600D01*
D31*
X20434492Y-21226900D02*
X20434492Y-20913900D01*
D29*
X11693800Y-14894900D02*
X11693800Y-15270600D01*
X31844000Y-8449400D02*
X31844000Y-7433400D01*
D31*
X18226492Y-21226900D02*
X18226492Y-20566500D01*
D29*
X31468300Y-8449400D02*
X31844000Y-8449400D01*
D31*
X20848492Y-21480900D02*
X20772892Y-21480900D01*
D29*
X13357500Y-20769700D02*
X13008100Y-20769700D01*
D31*
X21262492Y-21226900D02*
X21262492Y-20724492D01*
D29*
X30983692Y-11588240D02*
X30983692Y-11963940D01*
D31*
X21676492Y-20972900D02*
X21676492Y-20820008D01*
X19054492Y-21226900D02*
X19054492Y-20566500D01*
X19192492Y-21480900D02*
X19192492Y-21364900D01*
X20434492Y-20913900D02*
X20087092Y-20566500D01*
X21262492Y-20724492D02*
X21104500Y-20566500D01*
D29*
X26044800Y-8906600D02*
X26044800Y-9265400D01*
X18045069Y-11275813D02*
X18045069Y-11651513D01*
D31*
X20296492Y-21364900D02*
X20434492Y-21226900D01*
X20518892Y-21226900D02*
X20434492Y-21226900D01*
X30983692Y-17721700D02*
X28303992Y-20401400D01*
X25509992Y-20401400D02*
X25357592Y-20553800D01*
X18916492Y-21783500D02*
X18916492Y-21480900D01*
X28303992Y-20401400D02*
X25509992Y-20401400D01*
X19236192Y-22103200D02*
X18916492Y-21783500D01*
X23808192Y-22103200D02*
X19236192Y-22103200D01*
X25357592Y-20553800D02*
X23808192Y-22103200D01*
X23538492Y-21610900D02*
X21530492Y-21610900D01*
X28024592Y-19918800D02*
X25230592Y-19918800D01*
X25230592Y-19918800D02*
X24595592Y-20553800D01*
X30221692Y-17721700D02*
X28024592Y-19918800D01*
X21530492Y-21610900D02*
X21400492Y-21480900D01*
X24595592Y-20553800D02*
X23538492Y-21610900D01*
D29*
X20710492Y-20542200D02*
X20065780Y-19897488D01*
D31*
X20710492Y-21226900D02*
X20710492Y-20542200D01*
D29*
X20065780Y-19897488D02*
X20065780Y-17338160D01*
D31*
X20848492Y-21277100D02*
X20848492Y-20972900D01*
X28113492Y-20083900D02*
X25319492Y-20083900D01*
X23630392Y-21773000D02*
X21090392Y-21773000D01*
X20988792Y-21671400D02*
X20988792Y-21417400D01*
X30475692Y-17721700D02*
X28113492Y-20083900D01*
X21090392Y-21773000D02*
X20988792Y-21671400D01*
X20988792Y-21417400D02*
X20848492Y-21277100D01*
X24849592Y-20553800D02*
X23630392Y-21773000D01*
X25319492Y-20083900D02*
X24849592Y-20553800D01*
X20572492Y-20747100D02*
X20404592Y-20579200D01*
D29*
X19446820Y-19621428D02*
X19446820Y-17940140D01*
X20404592Y-20579200D02*
X19446820Y-19621428D01*
D31*
X20572492Y-20972900D02*
X20572492Y-20747100D01*
D29*
X21538492Y-20100200D02*
X21303700Y-19865408D01*
D31*
X21538492Y-21226900D02*
X21538492Y-20100200D01*
D29*
X21303700Y-19865408D02*
X21303700Y-16134200D01*
D31*
X27922992Y-19766400D02*
X25128992Y-19766400D01*
X24341592Y-20553800D02*
X23922492Y-20972900D01*
X23922492Y-20972900D02*
X21952492Y-20972900D01*
X29967692Y-17721700D02*
X27922992Y-19766400D01*
X25128992Y-19766400D02*
X24341592Y-20553800D01*
X21400492Y-20972900D02*
X21400492Y-20368600D01*
D29*
X20684740Y-19652848D02*
X20684740Y-16736180D01*
X21400492Y-20368600D02*
X20684740Y-19652848D01*
X17967600Y-19639400D02*
X18208900Y-19398100D01*
X17967600Y-20604600D02*
X17967600Y-19639400D01*
D31*
X17967600Y-20852008D02*
X17967600Y-20604600D01*
D29*
X18208900Y-19398100D02*
X18208900Y-19144100D01*
D31*
X18088492Y-20972900D02*
X17967600Y-20852008D01*
D29*
X18827860Y-19299840D02*
X18827860Y-18542120D01*
D31*
X18916492Y-20972900D02*
X18700592Y-20757000D01*
D29*
X18700592Y-19427108D02*
X18827860Y-19299840D01*
X18700592Y-20757000D02*
X18700592Y-19427108D01*
D31*
X25611592Y-20553800D02*
X23909792Y-22255600D01*
X23909792Y-22255600D02*
X18639292Y-22255600D01*
X18088492Y-21704800D02*
X18088492Y-21480900D01*
X31237692Y-17721700D02*
X28405592Y-20553800D01*
X28405592Y-20553800D02*
X25611592Y-20553800D01*
X18639292Y-22255600D02*
X18088492Y-21704800D01*
X28202392Y-20249000D02*
X25408392Y-20249000D01*
X20849092Y-21938100D02*
X20572492Y-21661500D01*
X20572492Y-21661500D02*
X20572492Y-21480900D01*
X23719292Y-21938100D02*
X20849092Y-21938100D01*
X25408392Y-20249000D02*
X25103592Y-20553800D01*
X25103592Y-20553800D02*
X23719292Y-21938100D01*
X30729692Y-17721700D02*
X28202392Y-20249000D01*
D29*
X14557500Y-21023700D02*
X14862300Y-20718900D01*
X14862300Y-20718900D02*
X14862300Y-20290550D01*
X14862300Y-20290550D02*
X14478400Y-19906650D01*
X13668400Y-20712800D02*
X13668400Y-20475400D01*
X13357500Y-21023700D02*
X13668400Y-20712800D01*
X26298800Y-9265400D02*
X26298800Y-8671680D01*
X32098000Y-9665400D02*
X32098000Y-9465400D01*
X31998000Y-9765400D02*
X32098000Y-9665400D01*
X16311520Y-8465940D02*
X15817300Y-7971720D01*
X26298800Y-8671680D02*
X26093060Y-8465940D01*
X26093060Y-8465940D02*
X16311520Y-8465940D01*
X26298800Y-9265400D02*
X26298800Y-9765400D01*
X15817300Y-7971720D02*
X15817300Y-6828800D01*
X27475840Y-9765400D02*
X31998000Y-9765400D01*
X32098000Y-8957400D02*
X32098000Y-9465400D01*
D32*
X27795060Y-7015400D02*
X27218280Y-7592180D01*
D29*
X24653200Y-8067800D02*
X24653200Y-7904280D01*
X27060800Y-9265400D02*
X27218280Y-9107920D01*
D32*
X32098000Y-7265400D02*
X31848000Y-7015400D01*
X32098000Y-7433400D02*
X32098000Y-7265400D01*
X31848000Y-7015400D02*
X27795060Y-7015400D01*
D29*
X27218280Y-9107920D02*
X27218280Y-7592180D01*
D32*
X32098000Y-7941400D02*
X32098000Y-7433400D01*
D31*
X31343240Y-6685400D02*
X31343240Y-7012860D01*
D29*
X24653200Y-7904280D02*
X24965300Y-7592180D01*
D32*
X27218280Y-7592180D02*
X24965300Y-7592180D01*
D31*
X30957160Y-6685400D02*
X30957160Y-7012860D01*
D32*
X13785092Y-13015400D02*
X18298000Y-13015400D01*
D29*
X12632205Y-11651513D02*
X12632205Y-11862513D01*
X26552800Y-9265400D02*
X26552800Y-9720200D01*
X26848000Y-10015400D02*
X29626200Y-10015400D01*
X31237692Y-11963940D02*
X32298000Y-10903632D01*
D32*
X18298000Y-13015400D02*
X30297248Y-13015400D01*
D29*
X32098000Y-8195400D02*
X32098000Y-8703400D01*
D32*
X13285092Y-12515400D02*
X13785092Y-13015400D01*
D29*
X30261200Y-10015400D02*
X32148000Y-10015400D01*
X32298000Y-8649400D02*
X32098000Y-8449400D01*
X29626200Y-10015400D02*
X30261200Y-10015400D01*
D32*
X31237692Y-12074956D02*
X31237692Y-11963940D01*
D29*
X32298000Y-10903632D02*
X32298000Y-9865400D01*
D32*
X30297248Y-13015400D02*
X31237692Y-12074956D01*
D29*
X12632205Y-11862513D02*
X13285092Y-12515400D01*
X26552800Y-9720200D02*
X26848000Y-10015400D01*
X17791069Y-11651513D02*
X17791069Y-12508469D01*
X32148000Y-10015400D02*
X32298000Y-9865400D01*
X32298000Y-9865400D02*
X32298000Y-8649400D01*
X17791069Y-12508469D02*
X18298000Y-13015400D01*
D31*
X29459692Y-17721700D02*
X27732492Y-19448900D01*
X15095200Y-21815400D02*
X14557500Y-21277700D01*
X23621992Y-20765400D02*
X23833592Y-20553800D01*
X24938492Y-19448900D02*
X23833592Y-20553800D01*
X27732492Y-19448900D02*
X24938492Y-19448900D01*
X27821392Y-19614000D02*
X25027392Y-19614000D01*
X29713692Y-17721700D02*
X27821392Y-19614000D01*
X14095200Y-22015400D02*
X13357500Y-21277700D01*
X25027392Y-19614000D02*
X24087592Y-20553800D01*
X23875992Y-20765400D02*
X24087592Y-20553800D01*
D30*
X9798000Y-10103400D02*
X19910000Y-10103400D01*
X19910000Y-10103400D02*
X20948000Y-9065400D01*
X20948000Y-9065400D02*
X23342900Y-9065400D01*
X23342900Y-9065400D02*
X23542900Y-9265400D01*
X17360664Y-15637179D02*
X17360664Y-15524600D01*
X20603490Y-16391430D02*
X18114915Y-16391430D01*
X20684740Y-16310180D02*
X20603490Y-16391430D01*
X18114915Y-16391430D02*
X17360664Y-15637179D01*
X12709800Y-15637179D02*
X12709800Y-15524600D01*
X15269991Y-18197370D02*
X12709800Y-15637179D01*
X18746610Y-18197370D02*
X15269991Y-18197370D01*
X18827860Y-18116120D02*
X18746610Y-18197370D01*
X15363971Y-18799350D02*
X12201800Y-15637179D01*
X18208900Y-18718100D02*
X18127650Y-18799350D01*
X18127650Y-18799350D02*
X15363971Y-18799350D01*
X12201800Y-15637179D02*
X12201800Y-15524600D01*
X18302875Y-17595390D02*
X16344664Y-15637179D01*
X19446820Y-17514140D02*
X19365570Y-17595390D01*
X16344664Y-15637179D02*
X16344664Y-15524600D01*
X19365570Y-17595390D02*
X18302875Y-17595390D01*
X14468400Y-19534150D02*
X14387150Y-19615400D01*
X11616800Y-15601600D02*
X11693800Y-15524600D01*
X11616800Y-17313489D02*
X11616800Y-15601600D01*
X13918711Y-19615400D02*
X11616800Y-17313489D01*
X14387150Y-19615400D02*
X13918711Y-19615400D01*
X13587150Y-20184150D02*
X12601361Y-20184150D01*
X11108800Y-15601600D02*
X11185800Y-15524600D01*
X11108800Y-18691589D02*
X11108800Y-15601600D01*
X12601361Y-20184150D02*
X11108800Y-18691589D01*
X13668400Y-20102900D02*
X13587150Y-20184150D01*
X20065780Y-16912160D02*
X19984530Y-16993410D01*
X18208895Y-16993410D02*
X16852664Y-15637179D01*
X19984530Y-16993410D02*
X18208895Y-16993410D01*
X16852664Y-15637179D02*
X16852664Y-15524600D01*
X21303700Y-15708200D02*
X21222450Y-15789450D01*
X18020935Y-15789450D02*
X17868664Y-15637179D01*
X21222450Y-15789450D02*
X18020935Y-15789450D01*
X17868664Y-15637179D02*
X17868664Y-15524600D01*
X15228570Y-18297370D02*
X12455800Y-15524600D01*
X18746610Y-18297370D02*
X15228570Y-18297370D01*
X18827860Y-18378620D02*
X18746610Y-18297370D01*
X18208900Y-18980600D02*
X18127650Y-18899350D01*
X18127650Y-18899350D02*
X15322550Y-18899350D01*
X15322550Y-18899350D02*
X11947800Y-15524600D01*
X11516800Y-17354911D02*
X11516800Y-15601600D01*
X14468400Y-19796650D02*
X14387150Y-19715400D01*
X11516800Y-15601600D02*
X11439800Y-15524600D01*
X14387150Y-19715400D02*
X13877289Y-19715400D01*
X13877289Y-19715400D02*
X11516800Y-17354911D01*
X11008800Y-18733011D02*
X11008800Y-15601600D01*
X13668400Y-20365400D02*
X13587150Y-20284150D01*
X12559939Y-20284150D02*
X11008800Y-18733011D01*
X13587150Y-20284150D02*
X12559939Y-20284150D01*
X11008800Y-15601600D02*
X10931800Y-15524600D01*
X20603490Y-16491430D02*
X18073494Y-16491430D01*
X18073494Y-16491430D02*
X17106664Y-15524600D01*
X20684740Y-16572680D02*
X20603490Y-16491430D01*
X17979514Y-15889450D02*
X17614664Y-15524600D01*
X21222450Y-15889450D02*
X17979514Y-15889450D01*
X21303700Y-15970700D02*
X21222450Y-15889450D01*
X19365570Y-17695390D02*
X18261454Y-17695390D01*
X19446820Y-17776640D02*
X19365570Y-17695390D01*
X18261454Y-17695390D02*
X16090664Y-15524600D01*
X19984530Y-17093410D02*
X18167474Y-17093410D01*
X18167474Y-17093410D02*
X16598664Y-15524600D01*
X20065780Y-17174660D02*
X19984530Y-17093410D01*
D31*
X25075900Y-12743300D02*
X30220100Y-12743300D01*
D30*
X9298000Y-10559400D02*
X9298000Y-11015400D01*
D31*
X22780900Y-10448300D02*
X25075900Y-12743300D01*
X22780900Y-9265400D02*
X22780900Y-10448300D01*
X16013069Y-11651513D02*
X16013069Y-12615400D01*
D30*
X9544000Y-10357400D02*
X9500000Y-10357400D01*
X10854205Y-11521605D02*
X10854205Y-11651513D01*
D31*
X30729692Y-12233708D02*
X30729692Y-11963940D01*
D30*
X9500000Y-10357400D02*
X9298000Y-10559400D01*
X10798000Y-11465400D02*
X10854205Y-11521605D01*
X9748000Y-11465400D02*
X10798000Y-11465400D01*
D31*
X10854205Y-11651513D02*
X10854205Y-12615400D01*
X30220100Y-12743300D02*
X30729692Y-12233708D01*
D30*
X9298000Y-11015400D02*
X9748000Y-11465400D01*
X9798000Y-11365400D02*
X9398000Y-10965400D01*
X11048000Y-11365400D02*
X9798000Y-11365400D01*
X9398000Y-10686400D02*
X9473000Y-10611400D01*
X9473000Y-10611400D02*
X9544000Y-10611400D01*
D31*
X25248100Y-12565500D02*
X30097900Y-12565500D01*
D30*
X11108205Y-11425605D02*
X11048000Y-11365400D01*
D31*
X16267069Y-11651513D02*
X16267069Y-12415400D01*
D30*
X9398000Y-10965400D02*
X9398000Y-10686400D01*
X11108205Y-11651513D02*
X11108205Y-11425605D01*
D31*
X30097900Y-12565500D02*
X30475692Y-12187708D01*
X11108205Y-11651513D02*
X11108205Y-12415400D01*
X30475692Y-12187708D02*
X30475692Y-11963940D01*
X23034900Y-10352300D02*
X25248100Y-12565500D01*
X23034900Y-9265400D02*
X23034900Y-10352300D01*
X30221692Y-12141708D02*
X30221692Y-11963940D01*
X25420300Y-12387700D02*
X29975700Y-12387700D01*
X16521069Y-11651513D02*
X16521069Y-12215400D01*
D30*
X11148000Y-11265400D02*
X11362205Y-11479605D01*
X9544000Y-10961400D02*
X9848000Y-11265400D01*
D31*
X11362205Y-11651513D02*
X11362205Y-12215400D01*
D30*
X11362205Y-11479605D02*
X11362205Y-11651513D01*
D31*
X23288900Y-9265400D02*
X23288900Y-10256300D01*
X29975700Y-12387700D02*
X30221692Y-12141708D01*
D30*
X9544000Y-10865400D02*
X9544000Y-10961400D01*
D31*
X23288900Y-10256300D02*
X25420300Y-12387700D01*
D30*
X9848000Y-11265400D02*
X11148000Y-11265400D01*
D31*
X29967692Y-11588240D02*
X29967692Y-11963940D01*
X10342520Y-8341400D02*
X9798000Y-8341400D01*
D30*
X20898000Y-8915400D02*
X19836160Y-9977240D01*
X27817900Y-12235300D02*
X24498000Y-8915400D01*
X9670160Y-9977240D02*
X9544000Y-10103400D01*
X19836160Y-9977240D02*
X9670160Y-9977240D01*
X24498000Y-8915400D02*
X20898000Y-8915400D01*
X29442332Y-12235300D02*
X27817900Y-12235300D01*
X29713692Y-11963940D02*
X29442332Y-12235300D01*
D31*
X29459692Y-11588240D02*
X29459692Y-11963940D01*
X10342520Y-8595400D02*
X9798000Y-8595400D01*
X12124205Y-11275813D02*
X12124205Y-11651513D01*
X9565280Y-9193650D02*
X9224920Y-8853290D01*
X9224920Y-8853290D02*
X9224920Y-8214480D01*
X11616205Y-11275813D02*
X11616205Y-11651513D01*
X9352000Y-8087400D02*
X9544000Y-8087400D01*
X9224920Y-8214480D02*
X9352000Y-8087400D01*
D30*
X9798000Y-10611400D02*
X11294000Y-10611400D01*
X11294000Y-10611400D02*
X11870205Y-11187605D01*
X11870205Y-11187605D02*
X11870205Y-11651513D01*
D31*
X9103000Y-7968100D02*
X9103000Y-11158340D01*
X9103000Y-11158340D02*
X9596173Y-11651513D01*
X9544000Y-7833400D02*
X9237700Y-7833400D01*
X9237700Y-7833400D02*
X9103000Y-7968100D01*
X9596173Y-11651513D02*
X10600205Y-11651513D01*
X9819280Y-8968860D02*
X9544000Y-8693580D01*
X9544000Y-8693580D02*
X9544000Y-8595400D01*
X16775069Y-11275813D02*
X16775069Y-11651513D01*
X10127960Y-8968860D02*
X9819280Y-8968860D01*
D30*
X9798000Y-10357400D02*
X16540000Y-10357400D01*
X17029069Y-10846469D02*
X17029069Y-11651513D01*
X16540000Y-10357400D02*
X17029069Y-10846469D01*
D31*
X10049573Y-9164440D02*
X9796420Y-9164440D01*
X9796420Y-9164440D02*
X9357000Y-8725020D01*
X9357000Y-8407520D02*
X9423120Y-8341400D01*
X9423120Y-8341400D02*
X9544000Y-8341400D01*
X9357000Y-8725020D02*
X9357000Y-8407520D01*
X15759069Y-11275813D02*
X15759069Y-11651513D01*
X10337017Y-9451883D02*
X10049573Y-9164440D01*
X17283069Y-11275813D02*
X17283069Y-11651513D01*
X10393400Y-7833400D02*
X9798000Y-7833400D01*
X16579300Y-6828800D02*
X16579300Y-6656000D01*
X11846200Y-6380600D02*
X10393400Y-7833400D01*
X16303900Y-6380600D02*
X11846200Y-6380600D01*
X16579300Y-6656000D02*
X16303900Y-6380600D01*
X16325300Y-6656000D02*
X16215000Y-6545700D01*
X16325300Y-6828800D02*
X16325300Y-6656000D01*
X10393400Y-8087400D02*
X9798000Y-8087400D01*
X16215000Y-6545700D02*
X11935100Y-6545700D01*
X11935100Y-6545700D02*
X10393400Y-8087400D01*
D29*
X19446820Y-17223860D02*
X19446820Y-17352890D01*
D32*
X14468400Y-7079100D02*
X13668400Y-7079100D01*
D29*
X18208900Y-18427820D02*
X18208900Y-18556850D01*
X21303700Y-15417920D02*
X21303700Y-15546950D01*
X13668400Y-19812620D02*
X13668400Y-19941650D01*
X14468400Y-19243870D02*
X14468400Y-19372900D01*
X18827860Y-17825840D02*
X18827860Y-17954870D01*
D32*
X24064500Y-7079100D02*
X18208900Y-7079100D01*
X24458200Y-7472800D02*
X24064500Y-7079100D01*
D29*
X20684740Y-16019900D02*
X20684740Y-16148930D01*
X20065780Y-16621880D02*
X20065780Y-16750910D01*
D31*
X30957160Y-7642980D02*
X31033360Y-7719180D01*
X24653200Y-6867800D02*
X24915300Y-7129900D01*
X30957160Y-7447400D02*
X30957160Y-7642980D01*
D32*
X26089580Y-7084180D02*
X25873200Y-6867800D01*
X27525400Y-6596500D02*
X27037720Y-7084180D01*
X27037720Y-7084180D02*
X26089580Y-7084180D01*
D31*
X30220560Y-7447400D02*
X30220560Y-7693780D01*
X9798000Y-10974500D02*
X9903100Y-11079600D01*
X9798000Y-10865400D02*
X9798000Y-10974500D01*
X31343240Y-7663300D02*
X31287360Y-7719180D01*
X31343240Y-7447400D02*
X31343240Y-7663300D01*
M02*
