M48
; DRILL file {KiCad 9.0.9.1-1.fc43} date 2026-06-15T16:46:13-0300
; FORMAT={2:4/ absolute / inch / keep zeros}
; #@! TF.CreationDate,2026-06-15T16:46:13-03:00
; #@! TF.GenerationSoftware,Kicad,Pcbnew,9.0.9.1-1.fc43
; #@! TF.FileFunction,MixedPlating,1,2
FMAT,2
INCH
; #@! TA.AperFunction,Plated,PTH,ComponentDrill
T1C0.0315
; #@! TA.AperFunction,Plated,PTH,ComponentDrill
T2C0.0354
; #@! TA.AperFunction,Plated,PTH,ComponentDrill
T3C0.0394
; #@! TA.AperFunction,Plated,PTH,ComponentDrill
T4C0.0402
; #@! TA.AperFunction,Plated,PTH,ComponentDrill
T5C0.0409
; #@! TA.AperFunction,Plated,PTH,ViaDrill
T6C0.0433
; #@! TA.AperFunction,Plated,PTH,ComponentDrill
T7C0.0433
; #@! TA.AperFunction,Plated,PTH,ComponentDrill
T8C0.0512
; #@! TA.AperFunction,Plated,PTH,ComponentDrill
T9C0.1260
; #@! TA.AperFunction,NonPlated,NPTH,ComponentDrill
T10C0.1260
%
G90
G05
T1
X118979Y-026320
X118979Y-029320
X118979Y-030290
X118979Y-033290
X123399Y-026320
X123399Y-029320
T2
X121879Y-026320
X121879Y-029320
X122179Y-030390
X123179Y-030390
T3
X097060Y-027039
X097060Y-031763
T4
X089689Y-036478
X090689Y-036478
X091689Y-036478
X092689Y-036478
X093689Y-036478
X093833Y-080920
X094833Y-080920
X095833Y-080920
X096833Y-080920
X097833Y-080920
X098833Y-080920
X099833Y-080920
X100833Y-080920
X102539Y-036478
X103539Y-036478
X104539Y-036478
X105539Y-036478
X106539Y-036478
T5
X043039Y-060120
X043039Y-061120
X044039Y-060120
X044039Y-061120
X045039Y-060120
X045039Y-061120
X046039Y-060120
X046039Y-061120
X047039Y-060120
X047039Y-061120
X048039Y-060120
X048039Y-061120
X049039Y-060120
X049039Y-061120
X050039Y-060120
X050039Y-061120
X052589Y-081770
X052589Y-082770
X052589Y-083770
X057313Y-081770
X057313Y-082770
X057313Y-083770
X062273Y-026885
X063273Y-026885
X063349Y-060120
X063349Y-061120
X064273Y-026885
X064349Y-060120
X064349Y-061120
X065273Y-026885
X065349Y-060120
X065349Y-061120
X066349Y-060120
X066349Y-061120
X067349Y-060120
X067349Y-061120
X068349Y-060120
X068349Y-061120
X069349Y-060120
X069349Y-061120
X070349Y-060120
X070349Y-061120
X115983Y-047102
X115983Y-068770
X115983Y-069770
X116983Y-047102
X116983Y-068770
X116983Y-069770
X117983Y-047102
X117983Y-068770
X117983Y-069770
X118983Y-047102
X118983Y-068770
X118983Y-069770
X119983Y-047102
X119983Y-068770
X119983Y-069770
X120983Y-047102
X120983Y-068770
X120983Y-069770
X121983Y-047102
X121983Y-068770
X121983Y-069770
X122983Y-047102
X122983Y-068770
X122983Y-069770
T6
X036639Y-038777
X037659Y-036195
X038989Y-043620
X039661Y-029840
X039874Y-035310
X040697Y-037212
X040719Y-032840
X040719Y-033840
X042733Y-049667
X043733Y-048880
X044733Y-048092
X045733Y-044393
X046039Y-058641
X047733Y-044393
X050733Y-044393
X051213Y-081770
X053813Y-027870
X053813Y-078002
X055493Y-086675
X056013Y-081770
X056962Y-027870
X056962Y-075763
X059430Y-085887
X062044Y-044393
X063044Y-049667
X063273Y-028170
X064044Y-048880
X065044Y-048092
X066044Y-044393
X066349Y-058641
X068044Y-044393
X071044Y-044393
X071689Y-027870
X071689Y-072550
X071758Y-080970
X074125Y-027870
X074125Y-070180
X075018Y-080970
X076562Y-027870
X076562Y-067810
X078999Y-027870
X078999Y-065440
X079033Y-080970
X081436Y-027870
X081436Y-063070
X083089Y-080970
X083873Y-027870
X083873Y-060700
X086339Y-080970
X089689Y-041135
X090689Y-040757
X091689Y-040379
X093000Y-081754
X093689Y-037957
X094000Y-081754
X098092Y-028070
X100470Y-031783
X102539Y-035065
X103539Y-038446
X105159Y-025970
X105539Y-035065
X108173Y-038446
X115983Y-045623
X117983Y-045623
X118983Y-067291
X121983Y-045623
X123891Y-031265
X123891Y-033265
X123891Y-035265
T7
X037575Y-028840
X037575Y-029840
X037575Y-030840
X037575Y-031840
X037575Y-032840
X037575Y-033840
X037575Y-037777
X037575Y-038777
X037575Y-039777
X037575Y-040777
X037575Y-041777
X037575Y-042777
X038575Y-028840
X038575Y-029840
X038575Y-030840
X038575Y-031840
X038575Y-032840
X038575Y-033840
X038575Y-037777
X038575Y-038777
X038575Y-039777
X038575Y-040777
X038575Y-041777
X038575Y-042777
X069041Y-082570
X069041Y-084570
X069585Y-083570
X070128Y-082570
X070128Y-084570
X070671Y-083570
X071215Y-082570
X071215Y-084570
X071758Y-083570
X072301Y-082570
X072301Y-084570
X072844Y-083570
X073388Y-082570
X073388Y-084570
X073931Y-083570
X074474Y-082570
X074474Y-084570
X075018Y-083570
X075561Y-082570
X075561Y-084570
X076104Y-083570
X076648Y-082570
X076648Y-084570
X077191Y-083570
X077734Y-082570
X077734Y-084570
X078278Y-083570
X078821Y-082570
X078821Y-084570
X079364Y-083570
X079907Y-082570
X079907Y-084570
X080451Y-083570
X080994Y-082570
X080994Y-084570
X081537Y-083570
X082081Y-082570
X082081Y-084570
X082624Y-083570
X083167Y-082570
X083167Y-084570
X083711Y-083570
X084254Y-082570
X084254Y-084570
X084797Y-083570
X085341Y-082570
X085341Y-084570
X085884Y-083570
X086427Y-082570
X086427Y-084570
T8
X041733Y-045872
X042733Y-045872
X043733Y-045872
X044733Y-045872
X045733Y-045872
X046733Y-045872
X047733Y-045872
X048733Y-045872
X049733Y-045872
X050733Y-045872
X062044Y-045872
X063044Y-045872
X064044Y-045872
X065044Y-045872
X066044Y-045872
X067044Y-045872
X068044Y-045872
X069044Y-045872
X070044Y-045872
X071044Y-045872
X096292Y-029420
X101863Y-027039
X101883Y-031783
X106399Y-025970
X108368Y-025970
X125370Y-029265
X125370Y-030265
X125370Y-031265
X125370Y-032265
X125370Y-033265
X125370Y-034265
X125370Y-035265
X125370Y-036265
X125370Y-037265
X126370Y-029265
X126370Y-030265
X126370Y-031265
X126370Y-032265
X126370Y-033265
X126370Y-034265
X126370Y-035265
X126370Y-036265
X126370Y-037265
T9
X036677Y-025146
X036677Y-087047
X086283Y-044184
X086283Y-072770
X108589Y-044184
X108589Y-072770
X126436Y-025146
X126436Y-087047
T10
X065707Y-083570
X089762Y-083570
M30
